<svg aria-hidden="true" style="position: absolute; width: 0; height: 0; overflow: hidden;" version="1.1" xmlns="http://www.w3.org/2000/svg" xmlns:xlink="http://www.w3.org/1999/xlink">
<defs>
<symbol id="icon-Slider_-1" viewBox="0 0 116 32">
<path fill="#2196f3" style="fill: var(--color1, #2196f3)" opacity="0.38" d="M1.455 14.545h113.455c0.803 0 1.455 0.651 1.455 1.455s-0.651 1.455-1.455 1.455h-113.455c-0.803 0-1.455-0.651-1.455-1.455s0.651-1.455 1.455-1.455z"></path>
<path fill="#2196f3" style="fill: var(--color1, #2196f3)" d="M2.182 13.818h29.818c1.205 0 2.182 0.977 2.182 2.182s-0.977 2.182-2.182 2.182h-29.818c-1.205 0-2.182-0.977-2.182-2.182s0.977-2.182 2.182-2.182z"></path>
<path fill="#2196f3" style="fill: var(--color1, #2196f3)" d="M34.909 8.727c4.017 0 7.273 3.256 7.273 7.273s-3.256 7.273-7.273 7.273c-4.017 0-7.273-3.256-7.273-7.273s3.256-7.273 7.273-7.273z"></path>
<path fill="#2196f3" style="fill: var(--color1, #2196f3)" d="M42.182 16c0 4.017-3.256 7.273-7.273 7.273s-7.273-3.256-7.273-7.273c0-4.017 3.256-7.273 7.273-7.273s7.273 3.256 7.273 7.273z"></path>
</symbol>
<symbol id="icon-hidden-1" viewBox="0 0 32 32">
<path fill="#2196f3" style="fill: var(--color1, #2196f3)" d="M25.333 4h-18.667c-1.48 0-2.667 1.2-2.667 2.667v18.667c0 1.467 1.187 2.667 2.667 2.667h18.667c1.48 0 2.667-1.2 2.667-2.667v-18.667c0-1.467-1.187-2.667-2.667-2.667zM13.333 22.667l-6.667-6.667 1.88-1.88 4.787 4.773 10.12-10.12 1.88 1.893-12 12z"></path>
</symbol>
<symbol id="icon-hidden" viewBox="0 0 32 32">
<path d="M25.333 6.667v18.667h-18.667v-18.667h18.667zM25.333 4h-18.667c-1.467 0-2.667 1.2-2.667 2.667v18.667c0 1.467 1.2 2.667 2.667 2.667h18.667c1.467 0 2.667-1.2 2.667-2.667v-18.667c0-1.467-1.2-2.667-2.667-2.667z"></path>
</symbol>
<symbol id="icon-delete_sweep" viewBox="0 0 32 32">
<path fill="#fff" style="fill: var(--color2, #fff)" d="M20 21.333h5.333v2.667h-5.333v-2.667zM20 10.667h9.333v2.667h-9.333v-2.667zM20 16h8v2.667h-8v-2.667zM4 24c0 1.467 1.2 2.667 2.667 2.667h8c1.467 0 2.667-1.2 2.667-2.667v-13.333h-13.333v13.333zM18.667 6.667h-4l-1.333-1.333h-5.333l-1.333 1.333h-4v2.667h16v-2.667z"></path>
</symbol>
<symbol id="icon-add" viewBox="0 0 32 32">
<path fill="#fff" style="fill: var(--color2, #fff)" d="M25.333 17.333h-8v8h-2.667v-8h-8v-2.667h8v-8h2.667v8h8v2.667z"></path>
</symbol>
<symbol id="icon-StarSharp" viewBox="0 0 32 32">
<path fill="#2196f3" style="fill: var(--color1, #2196f3)" d="M16 23.693l8.24 4.973-2.187-9.373 7.28-6.307-9.587-0.813-3.747-8.84-3.747 8.84-9.587 0.813 7.28 6.307-2.187 9.373 8.24-4.973z"></path>
</symbol>
<symbol id="icon-keyboard_backspace" viewBox="0 0 32 32">
<path d="M28 14.667h-18.893l4.773-4.787-1.88-1.88-8 8 8 8 1.88-1.88-4.773-4.787h18.893v-2.667z"></path>
</symbol>
<symbol id="icon-45789" viewBox="0 0 64 32">
<path d="M10.095 11.555c-0.295 0.115-0.465 0.225-0.78 0.51-0.22 0.195-0.54 0.44-0.71 0.535-0.17 0.1-0.315 0.22-0.33 0.275s0.010 0.225 0.060 0.375l0.090 0.275 0.24 0.015c0.415 0.025 1.125-0.075 1.405-0.205 0.265-0.125 0.525-0.4 0.43-0.46-0.12-0.075-0.045-0.265 0.175-0.45 0.25-0.2 0.25-0.285 0.005-0.275-0.29 0.015-0.295 0.005-0.135-0.175 0.18-0.21 0.24-0.395 0.155-0.5s-0.165-0.090-0.605 0.080z"></path>
<path d="M17.19 12.585c0.030 0.010 0.090 0.010 0.125 0 0.030-0.015 0.005-0.025-0.065-0.025s-0.095 0.010-0.060 0.025z"></path>
<path d="M19.73 12.595c-0.020 0.025-0.155 0.105-0.305 0.175-0.43 0.195-0.875 0.595-0.58 0.515 0.105-0.025 0.155 0.050 0.155 0.215 0 0.14-0.335 0.35-0.56 0.35-0.105 0-0.19-0.015-0.19-0.035 0-0.075 0.26-0.365 0.33-0.365 0.035 0 0.070-0.025 0.070-0.050 0-0.030-0.055-0.050-0.125-0.050-0.090 0-0.16 0.055-0.255 0.195-0.21 0.32-0.1 0.5 0.26 0.435 0.15-0.030 0.265-0.11 0.485-0.335 0.16-0.16 0.305-0.295 0.325-0.295s0.12 0.11 0.215 0.24c0.145 0.19 0.17 0.26 0.135 0.355-0.040 0.11-0.060 0.115-0.39 0.095-0.19-0.010-0.32 0-0.285 0.020 0.115 0.070 0.965 0.045 1.225-0.040 0.3-0.1 0.61-0.34 0.61-0.47 0-0.055-0.055-0.135-0.125-0.18-0.195-0.125-0.155-0.21 0.15-0.295 0.3-0.090 0.44-0.195 0.415-0.315-0.040-0.195-0.59-0.175-1.070 0.035l-0.215 0.095-0.015-0.155c-0.010-0.12-0.040-0.165-0.125-0.175-0.055-0.010-0.12 0.005-0.135 0.035z"></path>
<path d="M16.79 12.935c0.030 0.010 0.090 0.010 0.125 0 0.030-0.015 0.005-0.025-0.065-0.025s-0.095 0.010-0.060 0.025z"></path>
<path d="M14.31 13.185c-0.085 0.050-0.325 0.23-0.53 0.4-0.205 0.175-0.38 0.315-0.395 0.315-0.010 0-0.050-0.065-0.085-0.145-0.080-0.195-0.185-0.15-0.255 0.105-0.045 0.17-0.040 0.215 0.035 0.295 0.045 0.050 0.070 0.125 0.050 0.17-0.030 0.090-0.265 0.19-0.335 0.145-0.030-0.015-0.095 0.010-0.15 0.060-0.115 0.1-0.13 0.32-0.020 0.32 0.040 0 0.12 0.090 0.175 0.205 0.080 0.155 0.125 0.195 0.19 0.165 0.175-0.075 0.67-0.11 0.85-0.060 0.22 0.060 0.96 0.020 1.21-0.065 0.235-0.080 0.45-0.285 0.45-0.43 0-0.235-0.24-0.38-0.785-0.465-0.18-0.030-0.375-0.075-0.425-0.105-0.090-0.050-0.090-0.060-0.015-0.175 0.1-0.155 0.045-0.155-0.105 0.005-0.090 0.1-0.165 0.125-0.345 0.125-0.31 0-0.3-0.115 0.040-0.435 0.44-0.415 0.705-0.51 0.85-0.305l0.080 0.115v-0.11c0.005-0.11-0.12-0.215-0.255-0.215-0.035 0-0.14 0.040-0.23 0.085z"></path>
<path d="M21.9 13.405c1.060 0.055 3.49 0.050 3.4-0.005-0.045-0.030-0.855-0.045-2.075-0.040-1.47 0.005-1.82 0.015-1.325 0.045z"></path>
<path d="M7 13.515c-0.16 0.080-0.3 0.355-0.3 0.59 0 0.19-0.105 0.33-0.2 0.27-0.040-0.025-0.040-0.055 0.005-0.105 0.13-0.155-0.015-0.125-0.23 0.055-0.3 0.24-0.385 0.38-0.365 0.585 0.025 0.25 0.15 0.29 0.925 0.27 0.6-0.015 0.69-0.030 0.94-0.155 0.31-0.15 0.525-0.395 0.525-0.59 0-0.135-0.15-0.335-0.25-0.335-0.11 0-0.035-0.085 0.215-0.245l0.26-0.165-0.27 0.030c-0.15 0.015-0.415 0.075-0.59 0.135-0.175 0.055-0.335 0.090-0.35 0.075s0-0.095 0.035-0.18c0.105-0.255-0.070-0.375-0.35-0.235z"></path>
<path d="M25.895 13.64c-0.045 0.050-0.12 0.11-0.175 0.14-0.080 0.045-0.085 0.075-0.035 0.18 0.040 0.090 0.15 0.155 0.425 0.255 0.31 0.105 0.51 0.135 1.315 0.18 0.525 0.030 1.255 0.050 1.625 0.045l0.675-0.005-0.895-0.040c-1.595-0.070-3.030-0.31-3.030-0.505 0-0.020 0.070-0.075 0.155-0.115 0.080-0.045 0.145-0.105 0.135-0.135-0.030-0.090-0.11-0.090-0.195 0z"></path>
<path d="M33.155 13.805c-0.345 0.060-0.415 0.12-0.085 0.075 0.135-0.015 0.35-0.030 0.475-0.035 0.175 0 0.205-0.010 0.13-0.045-0.12-0.050-0.17-0.050-0.52 0.005z"></path>
<path d="M49.965 13.795c-0.12 0.020-0.23 0.055-0.25 0.075-0.040 0.035 0.33-0.010 0.535-0.075 0.16-0.045 0.015-0.045-0.285 0z"></path>
<path d="M31.525 13.885c-0.245 0.010-0.465 0.035-0.485 0.055-0.050 0.050 1.020 0.010 1.11-0.045 0.055-0.030 0.045-0.040-0.050-0.035-0.070 0.005-0.325 0.020-0.575 0.025z"></path>
<path d="M48.65 13.885c-0.15 0.010-0.295 0.045-0.325 0.075-0.060 0.065 0.705 0.010 0.82-0.060 0.085-0.050 0.060-0.050-0.495-0.015z"></path>
<path d="M28.95 13.95c-0.050 0.030 0.175 0.050 0.69 0.050 0.475 0 0.76-0.020 0.76-0.050 0-0.065-1.35-0.065-1.45 0z"></path>
<path d="M46.95 14.030c-1.040 0.065-1.475 0.11-1.44 0.15 0.015 0.010 0.44-0.015 0.945-0.055s1.070-0.075 1.26-0.075c0.19 0 0.335-0.020 0.335-0.050s-0.015-0.045-0.035-0.045c-0.025 0.005-0.5 0.040-1.065 0.075z"></path>
<path d="M22.82 14.080c-0.24 0.105-0.635 0.495-0.77 0.755-0.070 0.13-0.2 0.285-0.285 0.34-0.090 0.055-0.16 0.14-0.165 0.19 0 0.055-0.050 0.1-0.15 0.12-0.3 0.060-0.215 0.125 0.115 0.090 0.37-0.040 0.475-0.010 0.375 0.11-0.11 0.135-0.265 0.16-0.635 0.1-0.39-0.060-0.44-0.12-0.215-0.275 0.23-0.165 0.5-0.8 0.375-0.875-0.16-0.1-1.070 0.685-1.145 0.985-0.025 0.105-0.065 0.125-0.36 0.155-0.385 0.040-0.59 0.185-0.64 0.455-0.090 0.49 0.49 0.66 1.23 0.37 0.3-0.12 0.45-0.15 0.755-0.15 0.35 0 0.385-0.010 0.52-0.15 0.12-0.125 0.13-0.16 0.075-0.23-0.060-0.070-0.040-0.105 0.14-0.27 0.26-0.24 0.235-0.325-0.095-0.37-0.35-0.045-0.31-0.21 0.045-0.19 0.115 0.010 0.21-0.025 0.32-0.115 0.375-0.315 1.010-0.505 1.525-0.455 0.175 0.020 0.36 0.050 0.42 0.070 0.1 0.040 0.1 0.045-0.070 0.225-0.18 0.195-0.395 0.305-0.81 0.415-0.34 0.095-0.395 0.090-0.45-0.045-0.030-0.060-0.105-0.115-0.165-0.125-0.1-0.015-0.115 0-0.085 0.085 0.025 0.090 0.010 0.105-0.1 0.105-0.085 0-0.125 0.025-0.11 0.060 0.010 0.040 0.12 0.065 0.29 0.065 0.15 0 0.3 0.020 0.335 0.040 0.11 0.070 0.065 0.19-0.1 0.26-0.090 0.040-0.135 0.070-0.095 0.075 0.040 0 0.1 0.040 0.135 0.085 0.055 0.075 0.085 0.080 0.215 0.030 0.14-0.050 0.165-0.045 0.235 0.050l0.075 0.11 0.080-0.115c0.050-0.065 0.13-0.11 0.21-0.11 0.2 0 0.635-0.14 0.705-0.225 0.1-0.12 0.020-0.295-0.2-0.42l-0.205-0.115 0.13-0.115c0.14-0.135 0.16-0.26 0.055-0.405-0.065-0.085-0.13-0.095-0.565-0.090-0.27 0-0.55 0.030-0.625 0.060-0.12 0.050-0.14 0.045-0.14-0.025 0-0.045 0.050-0.135 0.105-0.195 0.075-0.080 0.1-0.15 0.075-0.235-0.035-0.155-0.17-0.19-0.36-0.105z"></path>
<path d="M45.025 14.155c-0.11 0.015-0.4 0.050-0.65 0.075-0.245 0.020-0.405 0.045-0.355 0.060 0.105 0.020 1.19-0.080 1.225-0.12 0.045-0.045-0.025-0.050-0.22-0.015z"></path>
<path d="M40.4 14.285c-0.070 0.015-0.145 0.045-0.17 0.070-0.060 0.055 2.47 0.050 2.97 0 0.185-0.020-0.28-0.035-1.050-0.035-0.755 0.005-1.43-0.010-1.5-0.025s-0.18-0.020-0.25-0.010z"></path>
<path d="M17.050 14.4c-0.28 0.030-0.24 0.035 0.275 0.040 0.33 0.005 0.635-0.015 0.675-0.040 0.085-0.055-0.405-0.055-0.95 0z"></path>
<path d="M38.375 15.15c-0.13 0.035-0.12 0.040 0.1 0.045 0.18 0 0.23-0.010 0.175-0.045-0.040-0.025-0.085-0.045-0.1-0.045-0.015 0.005-0.090 0.025-0.175 0.045z"></path>
<path d="M35.45 15.2c-0.065 0.040-0.060 0.050 0.015 0.050 0.045 0 0.085-0.025 0.085-0.050 0-0.060-0.005-0.060-0.1 0z"></path>
<path d="M10.945 15.36c-0.12 0.085-0.355 0.27-0.52 0.41-0.165 0.135-0.44 0.31-0.61 0.39-0.34 0.155-0.375 0.225-0.24 0.485 0.055 0.11 0.12 0.15 0.28 0.175 0.115 0.020 0.365 0.1 0.555 0.185 0.185 0.080 0.41 0.155 0.49 0.16 0.085 0.005 0.15 0.020 0.15 0.035s-0.1 0.085-0.22 0.165c-0.22 0.14-0.63 0.545-0.63 0.625 0 0.025-0.050 0.040-0.11 0.025-0.27-0.045-0.61 0.545-0.495 0.85 0.070 0.185 0.125 0.2 0.44 0.11 0.32-0.090 0.46-0.24 0.575-0.63 0.075-0.235 0.175-0.3 0.27-0.17 0.085 0.115 0.040 0.515-0.075 0.64-0.075 0.090-0.070 0.095 0.17 0.060 0.485-0.065 0.93-0.25 1.025-0.43 0.045-0.080 0.035-0.145-0.050-0.325-0.105-0.215-0.105-0.23-0.025-0.32 0.13-0.14 0.060-0.19-0.33-0.23-0.25-0.025-0.335-0.050-0.3-0.085 0.030-0.030 0.055-0.115 0.055-0.19 0-0.16 0.040-0.18 0.46-0.225 0.38-0.040 0.58-0.135 0.62-0.29 0.035-0.14-0.080-0.43-0.23-0.57-0.12-0.11-0.095-0.205 0.095-0.38 0.135-0.125 0.14-0.28 0.005-0.28-0.1 0-0.41 0.125-0.82 0.335-0.13 0.065-0.25 0.11-0.26 0.1-0.015-0.010 0.080-0.12 0.205-0.245 0.235-0.235 0.295-0.45 0.145-0.51-0.185-0.070-0.41-0.025-0.625 0.13z"></path>
<path d="M33.39 15.235c0.060 0.010 0.15 0.010 0.2 0 0.045-0.015-0.005-0.025-0.115-0.020-0.11 0-0.15 0.010-0.085 0.020z"></path>
<path d="M29.050 15.3c-0.090 0.030-0.025 0.040 0.225 0.045 0.245 0 0.325-0.010 0.275-0.045-0.090-0.055-0.325-0.055-0.5 0z"></path>
<path d="M29.75 15.3c0 0.025 0.025 0.050 0.050 0.050 0.030 0 0.050-0.025 0.050-0.050 0-0.030-0.020-0.050-0.050-0.050-0.025 0-0.050 0.020-0.050 0.050z"></path>
<path d="M31.2 15.305c0.33 0.055 0.595 0.055 0.5-0.005-0.040-0.025-0.22-0.045-0.4-0.045-0.325 0.005-0.325 0.010-0.1 0.050z"></path>
<path d="M16.415 15.375c-0.060 0.045-0.205 0.11-0.32 0.15-0.11 0.040-0.245 0.125-0.3 0.19-0.070 0.095-0.155 0.125-0.385 0.15-0.16 0.020-0.33 0.045-0.375 0.065-0.14 0.050-0.095 0.12 0.080 0.12 0.16 0 0.16 0.005 0.145 0.21-0.010 0.17 0.010 0.25 0.11 0.365 0.065 0.080 0.14 0.13 0.16 0.11 0.025-0.020 0.010-0.060-0.030-0.085-0.105-0.065-0.025-0.115 0.090-0.055 0.050 0.025 0.25 0.075 0.435 0.105 0.37 0.060 0.8 0.015 1.34-0.135 0.235-0.065 0.285-0.095 0.285-0.19 0-0.135-0.125-0.255-0.345-0.33-0.185-0.065-0.155-0.135 0.11-0.225 0.125-0.040 0.165-0.085 0.175-0.195 0.035-0.265-0.265-0.35-0.69-0.2-0.115 0.040-0.285 0.075-0.37 0.075h-0.155l0.125-0.1c0.145-0.115 0.070-0.135-0.085-0.025z"></path>
<path d="M28.015 15.335c0.13 0.010 0.34 0.010 0.475 0 0.13-0.010 0.020-0.015-0.24-0.015s-0.37 0.005-0.235 0.015z"></path>
<path d="M30.29 15.335c0.060 0.010 0.15 0.010 0.2 0 0.045-0.015-0.005-0.025-0.115-0.020-0.11 0-0.15 0.010-0.085 0.020z"></path>
<path d="M2.45 15.59c-0.085 0.090-0.15 0.205-0.15 0.28 0 0.155-0.105 0.26-0.295 0.305-0.175 0.035-0.33 0.195-0.29 0.295 0.045 0.115 0.525 0.33 0.745 0.33 0.245 0 0.915-0.275 1.015-0.415 0.040-0.060 0.075-0.205 0.075-0.32 0-0.16 0.025-0.225 0.1-0.265 0.125-0.070 0.125-0.16 0-0.275-0.12-0.11-0.18-0.070-0.105 0.065 0.080 0.15 0.070 0.19-0.070 0.25-0.165 0.075-0.19 0.075-0.16-0.005 0.040-0.105-0.040-0.195-0.245-0.27-0.375-0.14-0.455-0.14-0.62 0.025z"></path>
<path d="M29.34 15.785c0.030 0.010 0.090 0.010 0.125 0 0.030-0.015 0.005-0.025-0.065-0.025s-0.095 0.010-0.060 0.025z"></path>
<path d="M5.485 15.83c-0.020 0.020-0.035 0.085-0.035 0.14 0.005 0.095 0.005 0.1 0.055 0.015 0.055-0.095 0.040-0.215-0.020-0.155z"></path>
<path d="M46.84 15.885l-0.33 0.075-0.105 0.31c-0.135 0.4-0.135 0.41 0.045 0.475 0.085 0.025 0.15 0.055 0.15 0.065s-1.22 0.010-2.71 0.005c-1.805-0.005-2.665 0.010-2.565 0.040 0.42 0.135 5.25 0.085 6.085-0.065 0.335-0.065 0.41-0.095 0.61-0.28 0.125-0.115 0.27-0.21 0.32-0.21s0.23-0.045 0.4-0.105c0.305-0.1 0.45-0.24 0.38-0.355-0.040-0.065-0.73-0.025-1.085 0.065-0.2 0.045-0.26 0.045-0.405-0.025-0.205-0.095-0.345-0.095-0.79 0.005z"></path>
<path d="M7.035 16.095c-0.13 0.115-0.585 0.915-0.585 1.030 0 0.060 0.105 0.015 0.24-0.1 0.085-0.070 0.19-0.125 0.235-0.125 0.075 0 0.085 0.035 0.055 0.32-0.030 0.255-0.020 0.32 0.040 0.345 0.125 0.050 0.035 0.235-0.125 0.27-0.255 0.050-0.155 0.115 0.17 0.115 0.61 0 1.080-0.275 1.010-0.59-0.015-0.085-0.065-0.18-0.1-0.21-0.105-0.090-0.010-0.23 0.195-0.3 0.195-0.060 0.455-0.365 0.41-0.475-0.035-0.1-0.34-0.095-0.785 0.005-0.195 0.045-0.365 0.065-0.38 0.050s0-0.095 0.035-0.175c0.13-0.32-0.12-0.415-0.415-0.16z"></path>
<path d="M32.92 16.050c-0.175 0.115-0.52 0.53-0.52 0.63 0 0.040-0.095 0.075-0.235 0.095-0.375 0.050-0.455 0.1-0.515 0.33-0.050 0.175-0.045 0.22 0.035 0.305 0.155 0.175 0.48 0.33 0.805 0.395 0.395 0.075 1.070 0.035 1.235-0.075 0.065-0.045 0.19-0.080 0.27-0.080 0.12 0 0.16-0.025 0.185-0.12 0.015-0.070 0.015-0.145 0-0.175-0.020-0.025-0.005-0.105 0.025-0.175 0.075-0.165 0.025-0.22-0.095-0.115-0.12 0.11-0.175 0.105-0.275-0.005s-0.030-0.21 0.155-0.21c0.065 0 0.255-0.080 0.425-0.18 0.44-0.26 0.48-0.33 0.21-0.42-0.19-0.060-0.34-0.040-0.785 0.105-0.415 0.14-0.46 0.13-0.425-0.075 0.050-0.305-0.2-0.42-0.495-0.23z"></path>
<path d="M57.59 16.085c0.115 0.010 0.305 0.010 0.425 0 0.115-0.010 0.020-0.020-0.215-0.020s-0.33 0.010-0.21 0.020z"></path>
<path d="M54.9 16.14c0 0.020 0.085 0.030 0.19 0.020 0.29-0.025 0.31-0.050 0.050-0.055-0.135-0.005-0.24 0.015-0.24 0.035z"></path>
<path d="M51.825 16.2l-0.5 0.030 0.525 0.005c0.29 0 0.865-0.015 1.275-0.035l0.75-0.030h-0.775c-0.425 0-1 0.015-1.275 0.030z"></path>
<path d="M25.22 16.605c-0.19 0.17-0.38 0.355-0.43 0.41-0.045 0.060-0.2 0.165-0.35 0.235-0.21 0.1-0.27 0.155-0.28 0.255-0.050 0.435 1.24 0.755 1.845 0.455 0.285-0.145 0.31-0.245 0.115-0.475-0.125-0.15-0.125-0.16-0.040-0.21 0.165-0.090 0.38-0.325 0.355-0.39-0.010-0.035-0.135-0.065-0.34-0.070-0.175-0.005-0.335-0.010-0.355-0.010-0.020-0.005 0-0.1 0.040-0.215 0.055-0.165 0.060-0.215 0.010-0.25-0.13-0.080-0.24-0.030-0.57 0.265z"></path>
<path d="M14.435 16.545c-0.015 0.060 0.015 0.135 0.060 0.175 0.11 0.1 0.155 0.1 0.155 0.005 0-0.040-0.025-0.075-0.055-0.075s-0.045-0.045-0.030-0.1c0.015-0.060 0-0.1-0.040-0.1-0.035 0-0.075 0.045-0.090 0.095z"></path>
<path d="M30.72 16.505c-0.015 0.025 0.045 0.045 0.125 0.045 0.085 0 0.155-0.010 0.155-0.020 0-0.040-0.255-0.065-0.28-0.025z"></path>
<path d="M36.1 16.5c-0.080 0.025 0.065 0.040 0.4 0.040 0.29 0 0.57-0.015 0.625-0.040 0.13-0.055-0.85-0.055-1.025 0z"></path>
<path d="M38.595 16.7c-0.175 0.145-0.33 0.285-0.34 0.315-0.030 0.095-0.165 0.185-0.285 0.185-0.13 0-0.17 0.085-0.17 0.37 0 0.355 0.095 0.4 0.725 0.36 0.92-0.060 1.18-0.14 1.36-0.41 0.085-0.13 0.080-0.135-0.045-0.245-0.075-0.065-0.165-0.125-0.2-0.14-0.085-0.040 0.050-0.13 0.41-0.265 0.195-0.080 0.275-0.135 0.275-0.2 0-0.125-0.245-0.15-0.685-0.065-0.185 0.030-0.355 0.065-0.375 0.065-0.020 0.005-0.040-0.040-0.040-0.095 0-0.075-0.040-0.105-0.155-0.115-0.12-0.010-0.22 0.040-0.475 0.24z"></path>
<path d="M50.675 16.695c-0.12 0.035-0.085 0.045 0.18 0.050 0.18 0 0.435 0.020 0.565 0.035 0.225 0.035 0.235 0.040 0.2 0.165-0.080 0.305-0.070 0.32 0.33 0.435 0.205 0.060 0.605 0.135 0.89 0.165 0.545 0.060 1.65 0.075 1.595 0.025-0.015-0.015-0.43-0.050-0.92-0.070-1.075-0.050-1.815-0.195-1.815-0.355 0-0.030 0.045-0.115 0.1-0.195 0.075-0.11 0.085-0.15 0.035-0.19-0.080-0.070-0.965-0.115-1.16-0.065z"></path>
<path d="M5.835 17.16c-0.25 0.25-0.315 0.56-0.13 0.615 0.065 0.020 0.26 0.035 0.43 0.030 0.175-0.005 0.36 0.015 0.42 0.045 0.055 0.035 0.12 0.045 0.135 0.025 0.015-0.015-0.020-0.045-0.085-0.060-0.105-0.025-0.11-0.050-0.085-0.22 0.015-0.105 0.010-0.2-0.020-0.22-0.025-0.015-0.050 0.005-0.050 0.045 0 0.11-0.425 0.345-0.545 0.305-0.23-0.070-0.165-0.4 0.115-0.575 0.1-0.060 0.17-0.13 0.15-0.155-0.045-0.080-0.14-0.035-0.335 0.165z"></path>
<path d="M13.4 17c0 0.095 0.125 0.105 0.325 0.030l0.2-0.075h-0.26c-0.15-0.005-0.265 0.015-0.265 0.045z"></path>
<path d="M1.55 17.125c-0.035 0.040-0.115 0.075-0.185 0.075-0.065 0-0.235 0.080-0.38 0.175-0.195 0.13-0.31 0.175-0.465 0.175-0.175 0-0.235 0.025-0.34 0.155-0.27 0.315-0.215 0.545 0.13 0.545 0.275 0 0.495-0.105 0.66-0.32 0.175-0.23 0.29-0.18 0.245 0.105l-0.030 0.18 0.255-0.030c0.16-0.020 0.37-0.095 0.545-0.2 0.26-0.15 0.295-0.19 0.32-0.365 0.015-0.105 0.050-0.26 0.070-0.34l0.040-0.145-0.285 0.030c-0.225 0.020-0.28 0.015-0.28-0.045 0-0.095-0.22-0.090-0.3 0.005z"></path>
<path d="M21.475 17.37c-0.135 0.055-0.090 0.065 0.425 0.070 0.395 0.005 0.62-0.015 0.725-0.065 0.14-0.060 0.105-0.065-0.425-0.070-0.36 0-0.63 0.025-0.725 0.065z"></path>
<path d="M57.775 17.36c-0.385 0.020-0.925 0.060-1.2 0.085-0.46 0.040-0.42 0.040 0.5 0.040 0.55 0.005 1.145-0.010 1.325-0.030 0.28-0.025 0.305-0.035 0.2-0.080-0.080-0.035-0.37-0.040-0.825-0.015z"></path>
<path d="M58.975 17.335c-0.3 0.075-0.025 0.090 1.41 0.090 1.22 0 1.585-0.015 1.6-0.065 0.020-0.045-0.29-0.060-1.445-0.055-0.805 0.005-1.51 0.015-1.565 0.030z"></path>
<path d="M62.125 17.35c0.015 0.025 0.055 0.050 0.080 0.050 0.030 0 0.035-0.025 0.020-0.050-0.015-0.030-0.055-0.050-0.080-0.050-0.030 0-0.035 0.020-0.020 0.050z"></path>
<path d="M62.5 17.35c-0.085 0.025 0.030 0.040 0.34 0.045 0.255 0.005 0.455-0.015 0.44-0.040-0.035-0.055-0.615-0.060-0.78-0.005z"></path>
<path d="M19.585 17.525c-0.075 0.040-0.21 0.15-0.305 0.25-0.1 0.105-0.215 0.175-0.29 0.175-0.15 0-0.34 0.195-0.51 0.53-0.12 0.245-0.12 0.26-0.035 0.34 0.060 0.055 0.185 0.080 0.415 0.080 0.4 0 0.49-0.030 0.49-0.16 0-0.075-0.015-0.090-0.060-0.050-0.115 0.090-0.435 0.125-0.59 0.060-0.4-0.165 0.035-0.3 0.57-0.18 0.505 0.12 0.83 0.1 0.83-0.045 0-0.055-0.025-0.055-0.135 0.005-0.165 0.085-0.275 0.085-0.53 0.015-0.22-0.060-0.225-0.18-0.010-0.155 0.115 0.015 0.135 0.005 0.105-0.065-0.030-0.080 0-0.085 0.305-0.045 0.19 0.020 0.4 0.040 0.48 0.040 0.075 0.005 0.135 0.015 0.135 0.025s-0.070 0.095-0.155 0.19c-0.11 0.13-0.145 0.215-0.135 0.325 0.025 0.265-0.185 0.3-0.67 0.115-0.135-0.055-0.105 0.035 0.050 0.15 0.12 0.085 0.215 0.1 0.785 0.1 0.615 0 0.665-0.010 0.94-0.145 0.255-0.125 0.29-0.155 0.275-0.27-0.020-0.175-0.35-0.375-0.57-0.34-0.135 0.020-0.255-0.025-0.415-0.155-0.015-0.010 0.020-0.045 0.070-0.085 0.090-0.065 0.085-0.075-0.070-0.17-0.090-0.055-0.305-0.115-0.485-0.135-0.175-0.020-0.32-0.040-0.32-0.045 0-0.010 0.035-0.090 0.080-0.18 0.070-0.135 0.070-0.17 0.015-0.205-0.090-0.055-0.095-0.055-0.26 0.030z"></path>
<path d="M55.815 17.535c0.045 0.010 0.115 0.010 0.15 0 0.030-0.015-0.005-0.025-0.090-0.025-0.080 0-0.11 0.010-0.060 0.025z"></path>
<path d="M4.79 17.71c-0.065 0.065-0.155 0.135-0.21 0.165-0.055 0.025-0.12 0.125-0.15 0.215-0.070 0.205-0.15 0.26-0.39 0.26s-0.24-0.045 0-0.185c0.175-0.105 0.175-0.11 0.055-0.115-0.145 0-0.425 0.26-0.37 0.35 0.020 0.030-0.010 0.105-0.065 0.165-0.16 0.175-0.18 0.345-0.060 0.5 0.090 0.11 0.15 0.135 0.325 0.135 0.185 0 0.24-0.025 0.33-0.145 0.095-0.125 0.125-0.14 0.28-0.105 0.455 0.105 1.005-0.24 0.94-0.59-0.025-0.145-0.020-0.16 0.1-0.16 0.075 0 0.125-0.030 0.125-0.070 0-0.095-0.080-0.14-0.3-0.18-0.165-0.025-0.175-0.040-0.16-0.19 0.015-0.155 0.010-0.16-0.16-0.16-0.12 0-0.215 0.040-0.29 0.11z"></path>
<path d="M27.34 17.925c-0.505 0.1-1.125 0.65-1.055 0.925 0.030 0.115 0.115 0.135 0.115 0.035 0-0.040 0.065-0.165 0.14-0.28 0.15-0.22 0.67-0.575 0.925-0.635 0.15-0.030 0.415 0.050 0.45 0.145 0.030 0.090-0.105 0.385-0.18 0.385-0.12 0-0.715 0.31-0.965 0.505-0.165 0.13-0.305 0.195-0.405 0.195-0.255 0-0.47 0.060-0.5 0.135-0.085 0.215 0.31 0.615 0.605 0.615h0.14l-0.115-0.105-0.12-0.1 0.15 0.030c0.445 0.085 0.985 0.085 1.3 0 0.395-0.105 0.495-0.2 0.34-0.32-0.060-0.045-0.165-0.12-0.225-0.165l-0.115-0.085 0.265-0.235c0.145-0.13 0.3-0.3 0.34-0.38 0.075-0.14 0.090-0.15 0.285-0.12 0.115 0.020 0.23 0.055 0.255 0.080 0.080 0.080-0.215 0.345-0.415 0.38-0.26 0.040-0.415 0.11-0.375 0.175 0.045 0.075 0.285 0.020 0.605-0.14 0.25-0.13 0.265-0.145 0.265-0.325 0-0.14-0.025-0.2-0.11-0.245-0.1-0.055-0.57-0.075-0.815-0.035-0.080 0.010-0.095-0.010-0.085-0.115 0.010-0.14-0.145-0.315-0.315-0.355-0.055-0.015-0.23 0-0.385 0.035z"></path>
<path d="M14.93 18.055c-0.38 0.020-0.705 0.055-0.725 0.075-0.045 0.050 2.74-0.020 2.92-0.075 0.19-0.060-1.195-0.060-2.195 0z"></path>
<path d="M40.25 18.090c0 0.085 0.050 0.1 0.78 0.205 0.7 0.105 1.935 0.18 3.47 0.22 1.395 0.035 0.595-0.055-1.205-0.135-1.525-0.070-2.42-0.165-2.93-0.31-0.070-0.020-0.115-0.010-0.115 0.020z"></path>
<path d="M13.465 18.135c0.045 0.010 0.115 0.010 0.15 0 0.030-0.015-0.005-0.025-0.090-0.025-0.080 0-0.11 0.010-0.060 0.025z"></path>
<path d="M24.225 18.55c-0.135 0.035-0.135 0.040-0.025 0.040 0.070 0 0.195-0.020 0.275-0.040 0.135-0.035 0.135-0.040 0.025-0.040-0.070 0-0.19 0.020-0.275 0.040z"></path>
<path d="M5.925 18.6c0.015 0.025 0.065 0.050 0.105 0.050s0.060-0.025 0.045-0.050c-0.015-0.030-0.065-0.050-0.105-0.050s-0.060 0.020-0.045 0.050z"></path>
<path d="M46.6 18.6c0.735 0.055 2.060 0.090 1.85 0.045-0.095-0.020-0.665-0.050-1.275-0.060-0.795-0.020-0.955-0.015-0.575 0.015z"></path>
<path d="M8.29 18.815c-0.135 0.12-0.24 0.24-0.24 0.27 0 0.095-0.185 0.22-0.27 0.185-0.125-0.050-0.58 0.405-0.58 0.58 0 0.25 0.105 0.32 0.53 0.355 0.305 0.025 0.415 0.015 0.475-0.035 0.040-0.040 0.155-0.070 0.25-0.070 0.28 0 0.73-0.090 0.92-0.18 0.32-0.15 0.35-0.39 0.070-0.555-0.13-0.080-0.14-0.095-0.070-0.15 0.050-0.030 0.075-0.11 0.065-0.175-0.020-0.15-0.225-0.175-0.61-0.075-0.265 0.070-0.37 0.040-0.2-0.055 0.1-0.055 0.075-0.28-0.030-0.3-0.040-0.005-0.18 0.085-0.31 0.205z"></path>
<path d="M14.175 19.070c-0.13 0.050-0.21 0.060-0.23 0.025-0.015-0.030-0.125 0.005-0.275 0.095-0.175 0.1-0.25 0.175-0.26 0.265-0.015 0.11-0.040 0.125-0.27 0.135-0.14 0.005-0.265 0.020-0.275 0.030-0.015 0.010-0.055 0.14-0.090 0.285-0.050 0.185-0.055 0.285-0.020 0.33 0.175 0.21 1.33 0.425 1.58 0.3 0.080-0.040 0.245-0.090 0.38-0.105 0.29-0.045 0.41-0.19 0.37-0.455-0.025-0.155-0.015-0.175 0.080-0.175 0.1-0.005 0.105-0.005 0.020-0.055s-0.075-0.070 0.105-0.265c0.11-0.12 0.225-0.265 0.255-0.325 0.055-0.1 0.050-0.105-0.26-0.105-0.175 0-0.455-0.010-0.615-0.025-0.195-0.020-0.36 0-0.495 0.045z"></path>
<path d="M6.050 19.3c0 0.025 0.035 0.050 0.080 0.050 0.040 0 0.060-0.025 0.045-0.050-0.015-0.030-0.050-0.050-0.080-0.050-0.025 0-0.045 0.020-0.045 0.050z"></path>
<path d="M36.2 19.5c-0.055 0.035 0.005 0.045 0.2 0.045 0.21-0.005 0.245-0.015 0.15-0.045-0.175-0.055-0.265-0.055-0.35 0z"></path>
<path d="M38.35 19.5c0 0.025 0.060 0.050 0.13 0.050s0.115-0.020 0.095-0.050c-0.015-0.030-0.075-0.050-0.13-0.050-0.050 0-0.095 0.020-0.095 0.050z"></path>
<path d="M18.425 19.7c-0.135 0.020 0.505 0.035 1.425 0.035 0.965 0 1.54-0.015 1.35-0.035-0.405-0.045-2.44-0.045-2.775 0z"></path>
<path d="M22.025 19.7c-0.020 0.030 0.025 0.050 0.1 0.050s0.12-0.020 0.1-0.050c-0.015-0.030-0.060-0.050-0.1-0.050s-0.085 0.020-0.1 0.050z"></path>
<path d="M22.84 19.735c0.035 0.015 0.080 0.010 0.095-0.005 0.020-0.015-0.010-0.030-0.065-0.025-0.055 0-0.070 0.015-0.030 0.030z"></path>
<path d="M40.35 19.85c0 0.025 0.025 0.050 0.050 0.050 0.030 0 0.050-0.025 0.050-0.050 0-0.030-0.020-0.050-0.050-0.050-0.025 0-0.050 0.020-0.050 0.050z"></path>
<path d="M41.74 19.855c-0.040 0.025 0.060 0.045 0.255 0.045 0.175 0 0.31-0.010 0.3-0.020-0.050-0.040-0.49-0.065-0.555-0.025z"></path>
<path d="M35.3 19.9c-0.455 0.030-0.45 0.030 0.225 0.035 0.385 0 0.86-0.015 1.050-0.035 0.315-0.030 0.295-0.035-0.225-0.035-0.315 0.005-0.79 0.020-1.050 0.035z"></path>
<path d="M40.89 19.885c0.085 0.010 0.235 0.010 0.325 0 0.085-0.010 0.015-0.020-0.165-0.020s-0.25 0.010-0.16 0.020z"></path>
<path d="M15.27 20.105c-0.040 0.065 0.065 0.145 0.2 0.145 0.090 0 0.090-0.005 0.005-0.1-0.105-0.115-0.155-0.125-0.205-0.045z"></path>
<path d="M19.675 20.35l-0.4 0.030 0.475 0.005c0.26 0.005 0.6-0.010 0.75-0.035l0.275-0.035h-0.35c-0.19 0-0.53 0.020-0.75 0.035z"></path>
</symbol>
</defs>
</svg>
